<?xml version="1.0" encoding="UTF-8" standalone="no"?>
<!DOCTYPE svg PUBLIC "-//W3C//DTD SVG 1.1//EN" "http://www.w3.org/Graphics/SVG/1.1/DTD/svg11.dtd">
<svg width="100%" height="100%" viewBox="0 0 24 24" version="1.1" xmlns="http://www.w3.org/2000/svg" xmlns:xlink="http://www.w3.org/1999/xlink" xml:space="preserve" xmlns:serif="http://www.serif.com/" style="fill-rule:evenodd;clip-rule:evenodd;stroke-linejoin:round;stroke-miterlimit:2;">
    <path d="M20.441,3.273C18.58,6.967 17.141,10.9 14.767,14.319C13.703,15.893 12.438,17.482 10.607,18.179C9.297,18.731 7.671,18.516 6.627,17.532C5.999,17.009 6.087,16.102 6.454,15.457C7.414,14.233 8.794,13.437 10.044,12.542C13.886,9.917 17.49,6.888 20.441,3.272L20.441,3.273Z" style="fill:rgb(36,99,235);fill-rule:nonzero;"/>
    <path d="M18.748,4.523C16.245,7.274 13.367,9.683 10.296,11.792L10.293,11.794L10.29,11.797C8.963,12.776 7.455,13.621 6.297,14.911C5.948,15.244 5.714,15.953 5.76,16.392C5.138,15.349 4.96,13.778 5.503,12.652C6.029,11.462 7.245,10.845 8.379,10.36C12.136,9.007 15.074,7.434 18.748,4.524L18.748,4.523Z" style="fill:rgb(36,99,235);fill-rule:nonzero;"/>
</svg>
